<svg width="56" height="55" viewBox="0 0 56 55" fill="none" xmlns="http://www.w3.org/2000/svg">
<path d="M40.9614 9.26069C41.9977 8.75954 42.7154 7.70204 42.7154 6.47465C42.7154 5.65464 42.3897 4.86822 41.8098 4.28839C41.23 3.70856 40.4436 3.38281 39.6236 3.38281C38.8036 3.38281 38.0171 3.70856 37.4373 4.28839C36.8575 4.86822 36.5317 5.65464 36.5317 6.47465C36.5317 7.71902 37.2665 8.78503 38.324 9.27768C37.1008 15.903 35.2237 20.8338 28.2373 21.8871C28.2373 21.8871 30.1187 31.2943 38.9186 31.2943C47.7184 31.2943 48.6103 21.9805 48.6103 21.9805C41.471 22.3458 40.868 13.3718 40.9614 9.26069Z" fill="#F19534"/>
<path d="M15.5724 9.26069C14.5361 8.75954 13.8184 7.70204 13.8184 6.47465C13.8184 5.65464 14.1441 4.86822 14.7239 4.28839C15.3038 3.70856 16.0902 3.38281 16.9102 3.38281C17.7302 3.38281 18.5166 3.70856 19.0964 4.28839C19.6763 4.86822 20.002 5.65464 20.002 6.47465C20.002 7.71902 19.2673 8.78503 18.2098 9.27768C19.4329 15.903 21.3101 20.8338 28.2965 21.8871C28.2965 21.8871 26.415 31.2943 17.6152 31.2943C8.81536 31.2943 7.92773 21.9848 7.92773 21.9848C15.0627 22.3458 15.6658 13.3718 15.5724 9.26069Z" fill="#F19534"/>
<path d="M38.7998 31.291C38.838 31.291 38.8762 31.2953 38.9145 31.2953C41.3395 31.2953 43.1615 30.586 44.529 29.5625L38.7998 31.291Z" fill="#FFCA28"/>
<path d="M51.4604 7.1587C50.0461 6.96759 48.6955 8.31389 48.4492 10.1571C48.2963 11.308 48.6064 12.3825 49.2052 13.0748L48.1859 17.3006C48.1859 17.3006 46.6272 27.2853 38.7533 29.256C32.4592 30.8316 30.1785 19.3094 29.6264 15.7504C30.8241 15.1558 31.6522 13.9242 31.6522 12.493C31.6522 10.4841 30.0256 8.85751 28.0168 8.85751C26.0079 8.85751 24.3813 10.4841 24.3813 12.493C24.3813 13.9327 25.2222 15.1771 26.4411 15.7632C26.0037 19.2755 24.0755 30.4154 17.2803 29.2517C10.3831 28.0668 7.37201 16.4512 6.6755 13.2914C7.50366 12.6119 7.96659 11.4142 7.79671 10.1274C7.55038 8.27992 6.08941 6.95484 4.535 7.16295C2.98059 7.37105 1.92308 9.03589 2.1694 10.8791C2.34778 12.2212 3.1717 13.2872 4.20373 13.6906L9.60594 47.2548C9.60594 47.2548 14.3201 50.9795 28.0168 50.9795C41.7134 50.9795 46.4276 47.2548 46.4276 47.2548L51.8426 13.6014C52.7175 13.1428 53.4055 12.1107 53.5754 10.8451C53.826 8.99766 52.8789 7.34982 51.4604 7.1587Z" fill="#FFCA28"/>
<path d="M28.1864 42.4319C30.471 42.4319 32.323 40.2243 32.323 37.5011C32.323 34.7779 30.471 32.5703 28.1864 32.5703C25.9018 32.5703 24.0498 34.7779 24.0498 37.5011C24.0498 40.2243 25.9018 42.4319 28.1864 42.4319Z" fill="#1B3A4B"/>
<path d="M28.1865 33.7875C28.3479 33.9659 28.4923 34.2929 28.1865 34.9299C27.8807 35.567 26.2329 36.4291 25.9314 36.6033C25.6298 36.7816 25.4302 36.7009 25.3368 36.6287C24.8908 36.272 25.0607 35.4651 25.3495 34.9724C25.9696 33.9064 27.2819 32.8064 28.1865 33.7875Z" fill="#006466"/>
<path d="M27.881 39.3403C27.4139 39.5654 25.8807 40.2492 26.3861 41.0603C26.6834 41.5403 27.2992 41.7441 27.864 41.7696C28.4289 41.7951 28.9853 41.6167 29.4864 41.3576C31.8647 40.126 32.0559 36.8898 31.5929 36.6434C31.1173 36.3886 30.7945 37.0469 30.5482 37.3272C29.7992 38.166 28.8931 38.8499 27.881 39.3403Z" fill="#144552"/>
<path d="M50.9714 33.4697C51.6339 29.8045 49.1706 28.8872 49.1706 28.8872C49.1706 28.8872 47.5822 28.5984 46.8348 32.7222C46.0873 36.8418 47.6757 37.1306 47.6757 37.1306C47.6757 37.1306 50.3046 37.1349 50.9714 33.4697Z" fill="#1B3A4B"/>
<path d="M49.8759 30.138C50.4535 30.911 49.7697 32.0534 48.6613 32.8136C48.3343 33.0387 47.9011 32.9538 47.8374 32.7669C47.659 32.2318 47.7354 31.6245 47.9733 31.1106C48.6783 29.5689 49.5829 29.7473 49.8759 30.138Z" fill="#006466"/>
<path d="M4.96394 33.5791C4.29715 29.9182 6.76467 28.9965 6.76467 28.9965C6.76467 28.9965 8.35306 28.7078 9.10054 32.8316C9.84801 36.9512 8.25963 37.24 8.25963 37.24C8.25963 37.24 5.62647 37.2443 4.96394 33.5791Z" fill="#1B3A4B"/>
<path d="M7.52063 30.2413C8.08973 30.666 7.85614 31.2224 7.42719 31.6089C6.93879 32.0548 6.56505 32.5432 6.14884 33.0486C6.08513 33.125 6.01293 33.21 5.91101 33.2312C5.71564 33.2737 5.5585 33.0741 5.4948 32.883C5.31218 32.3478 5.34615 31.7193 5.61796 31.2266C6.39092 29.8209 7.29978 30.0757 7.52063 30.2413Z" fill="#006466"/>
<path d="M43.2853 37.0162C42.9923 38.6853 41.6545 39.8447 40.2912 39.6069C38.9279 39.369 38.741 37.9463 39.0341 36.2772C39.3271 34.6081 39.9854 33.3298 41.3444 33.5676C42.7077 33.8054 43.5784 35.3514 43.2853 37.0162Z" fill="#4D194D"/>
<path d="M13.7428 37.0162C14.0359 38.6853 15.3737 39.8447 16.737 39.6069C18.1003 39.369 18.2871 37.9463 17.9941 36.2772C17.701 34.6081 17.0428 33.3298 15.6837 33.5676C14.3247 33.8054 13.454 35.3514 13.7428 37.0162Z" fill="#4D194D"/>
<path d="M15.7169 35.903C15.4069 36.2512 14.6509 36.952 14.3834 36.4169C14.0181 35.6864 14.5235 34.5822 15.1011 34.2169C15.6787 33.8517 16.1501 34.1405 16.2308 34.4675C16.3285 34.8837 15.993 35.5887 15.7169 35.903Z" fill="#FFA8A4" fill-opacity="0.1"/>
<path d="M39.8832 36.975C39.4628 36.9113 39.416 35.4631 40.5457 34.3249C41.0851 33.7813 41.8581 34.4268 41.6627 35.2974C41.4758 36.1256 40.6519 37.0939 39.8832 36.975Z" fill="#FFA8A4" fill-opacity="0.1"/>
<path d="M47.1754 41.7109C44.6314 42.985 38.796 46.3784 28.0213 46.3784C17.2466 46.3784 11.4112 42.985 8.86721 41.7109C8.86721 41.7109 7.9541 42.1993 7.9541 42.709V46.6205C7.9541 47.1429 8.23016 47.6228 8.68034 47.8904C10.6679 49.0625 16.7242 51.8316 28.0255 51.8316C39.3269 51.8316 45.3831 49.0625 47.3707 47.8904C47.5917 47.7601 47.7749 47.5744 47.9023 47.3517C48.0296 47.1291 48.0967 46.877 48.097 46.6205V42.709C48.0885 42.1993 47.1754 41.7109 47.1754 41.7109Z" fill="#FFCA28"/>
<path d="M17.6374 47.0773C18.8265 47.3109 19.1875 47.4128 19.1068 48.0753C18.9412 49.3792 16.2359 49.0691 14.6347 48.6487C11.3263 47.778 10.6553 46.8607 10.6553 46.041C10.6553 45.2893 11.2329 45.2001 12.1247 45.5144C13.1907 45.8923 14.8386 46.5294 17.6374 47.0773Z" fill="#FFF59D"/>
<path d="M47.1744 42.5703C47.1744 42.5703 40.137 46.554 28.0203 46.554C15.9035 46.554 8.86621 42.5703 8.86621 42.5703" stroke="#F19534" stroke-width="2.17448" stroke-miterlimit="10" stroke-linecap="round"/>
<path d="M12.273 21.0528C14.5324 19.4389 15.7471 16.5467 15.8533 11.9429C15.8618 11.5267 15.9807 11.4036 16.2058 11.3781C16.5668 11.3398 16.6262 11.6669 16.622 11.9005C16.52 16.8695 15.8872 19.974 13.3815 21.7238C13.2583 21.8088 12.3792 22.3439 12.0055 21.9744C11.5595 21.5412 12.1286 21.1547 12.273 21.0528Z" fill="#FFCA28"/>
<path d="M14.3407 6.59739C14.2685 5.82868 14.4469 4.44415 16.4643 3.81559C17.0546 3.63297 17.4198 3.92177 17.4878 4.14686C17.6577 4.70747 17.165 4.92831 16.9399 5.00051C15.3898 5.50166 15.3133 6.27462 14.9948 6.76727C14.6763 7.25993 14.3662 6.83098 14.3407 6.59739Z" fill="#FFCA28"/>
<path d="M34.0392 20.032C36.082 18.2185 37.4368 16.1927 38.3287 11.5804C38.4094 11.1727 38.5283 11.0623 38.7491 11.0708C39.1101 11.0793 39.1271 11.4148 39.0889 11.6441C38.3329 16.5622 37.6152 17.9637 35.0967 20.754C34.8121 21.0683 34.1199 21.3528 33.7291 21.0258C33.3766 20.7327 33.7844 20.2613 34.0392 20.032Z" fill="#FFCA28"/>
<path d="M37.0458 6.63646C36.9736 5.86775 37.152 4.48322 39.1693 3.85466C39.7597 3.67203 40.1249 3.96083 40.1929 4.18592C40.3627 4.74653 39.8701 4.96738 39.645 5.03958C38.0948 5.54072 38.0184 6.31368 37.6999 6.80634C37.3856 7.29899 37.0713 6.87004 37.0458 6.63646Z" fill="#FFCA28"/>
<path d="M14.2347 30.4181C9.29969 28.1799 7.84721 22.3402 7.07425 19.8048C6.97233 19.4692 7.02329 19.1507 7.3588 19.0488C7.69432 18.9469 7.89393 19.1635 8.00011 19.499C8.56071 21.3379 10.7394 27.4791 15.237 29.2247C15.5641 29.3521 16.0737 29.6621 15.7976 30.193C15.615 30.537 15.0289 30.7791 14.2347 30.4181Z" fill="#FFF59D"/>
<path d="M6.20408 10.4588C5.96625 9.96611 5.86857 9.49893 4.57323 8.95956C4.24621 8.82366 4.02961 8.52212 4.1188 8.18236C4.20798 7.84259 4.54774 7.58777 5.0404 7.67271C6.64153 7.94877 6.98978 9.57538 7.05774 10.1402C7.12144 10.6839 6.44616 10.9514 6.20408 10.4588Z" fill="#FFF59D"/>
<path d="M41.9604 30.4181C46.8954 28.1799 48.3479 22.3402 49.1208 19.8048C49.2228 19.4692 49.1718 19.1507 48.8363 19.0488C48.5008 18.9469 48.3012 19.1635 48.195 19.499C47.6344 21.3379 45.4557 27.4791 40.9581 29.2247C40.631 29.3521 40.1214 29.6621 40.3975 30.193C40.5801 30.537 41.1662 30.7791 41.9604 30.4181Z" fill="#FFF59D"/>
<path d="M49.9907 10.4588C50.2285 9.96611 50.3262 9.49893 51.6215 8.95956C51.9485 8.82366 52.1651 8.52212 52.0759 8.18236C51.9868 7.84259 51.647 7.58777 51.1543 7.67271C49.5532 7.94877 49.205 9.57538 49.137 10.1402C49.0733 10.6839 49.7528 10.9514 49.9907 10.4588Z" fill="#FFF59D"/>
<path d="M26.0372 12.5512C26.2963 12.0203 26.7507 11.294 28.233 10.9883C28.8021 10.8693 28.9677 10.623 28.9167 10.2493C28.8148 9.47207 27.8465 9.52728 27.3241 9.65044C25.5828 10.0582 25.1963 11.6041 25.1241 12.2156C25.0519 12.7975 25.7824 13.082 26.0372 12.5512Z" fill="#FFF59D"/>
</svg>
