<svg width="30" height="30" viewBox="0 0 30 30" fill="none" xmlns="http://www.w3.org/2000/svg">
<circle cx="15.0496" cy="15.0262" r="14.784" fill="#312244"/>
<path d="M15.0498 7.91406C13.2637 7.91406 11.8158 9.36197 11.8158 11.1481C11.8158 12.9341 13.2637 14.3821 15.0498 14.3821C16.8359 14.3821 18.2838 12.9341 18.2838 11.1481C18.2838 9.36197 16.8359 7.91406 15.0498 7.91406Z" fill="white"/>
<path d="M11.6002 16.1068C9.81412 16.1068 8.36621 17.5548 8.36621 19.3408V20.3656C8.36621 21.0152 8.83698 21.5691 9.47808 21.6737C13.1681 22.2762 16.9315 22.2762 20.6215 21.6737C21.2626 21.5691 21.7334 21.0152 21.7334 20.3656V19.3408C21.7334 17.5548 20.2855 16.1068 18.4994 16.1068H18.2054C18.0463 16.1068 17.8882 16.132 17.737 16.1814L16.9906 16.4251C15.7295 16.8369 14.3701 16.8369 13.109 16.4251L12.3626 16.1814C12.2114 16.132 12.0533 16.1068 11.8942 16.1068H11.6002Z" fill="white"/>
</svg>
